<?xml version="1.0" encoding="UTF-8" standalone="no"?>
<!DOCTYPE svg PUBLIC "-//W3C//DTD SVG 1.1//EN"
 "http://www.w3.org/Graphics/SVG/1.1/DTD/svg11.dtd">
<!-- Generated by graphviz version 2.40.1 (20161225.0304)
 -->
<!-- Title: %3 Pages: 1 -->
<svg width="428pt" height="45pt"
 viewBox="0.00 0.00 428.01 45.00" xmlns="http://www.w3.org/2000/svg" xmlns:xlink="http://www.w3.org/1999/xlink">
<g id="graph0" class="graph" transform="scale(1 1) rotate(0) translate(4 41)">
<title>%3</title>
<polygon fill="#ffffff" stroke="transparent" points="-4,4 -4,-41 424.0059,-41 424.0059,4 -4,4"/>
<!-- GIT -->
<g id="node1" class="node">
<title>GIT</title>
<g id="a_node1"><a xlink:href="http://github.com/bvberkum/x-ci.git" xlink:title="GIT">
<path fill="none" stroke="#000000" d="M12,-.5C12,-.5 42,-.5 42,-.5 48,-.5 54,-6.5 54,-12.5 54,-12.5 54,-24.5 54,-24.5 54,-30.5 48,-36.5 42,-36.5 42,-36.5 12,-36.5 12,-36.5 6,-36.5 0,-30.5 0,-24.5 0,-24.5 0,-12.5 0,-12.5 0,-6.5 6,-.5 12,-.5"/>
<text text-anchor="middle" x="27" y="-14.3" font-family="Times,serif" font-size="14.00" fill="#000000">GIT</text>
</a>
</g>
</g>
<!-- Travis -->
<g id="node2" class="node">
<title>Travis</title>
<g id="a_node2"><a xlink:href="https://travis-ci.org/bvberkum/x-ci" xlink:title="Travis">
<path fill="none" stroke="#000000" d="M184.2227,-.5C184.2227,-.5 214.2227,-.5 214.2227,-.5 220.2227,-.5 226.2227,-6.5 226.2227,-12.5 226.2227,-12.5 226.2227,-24.5 226.2227,-24.5 226.2227,-30.5 220.2227,-36.5 214.2227,-36.5 214.2227,-36.5 184.2227,-36.5 184.2227,-36.5 178.2227,-36.5 172.2227,-30.5 172.2227,-24.5 172.2227,-24.5 172.2227,-12.5 172.2227,-12.5 172.2227,-6.5 178.2227,-.5 184.2227,-.5"/>
<text text-anchor="middle" x="199.2227" y="-14.3" font-family="Times,serif" font-size="14.00" fill="#000000">Travis</text>
</a>
</g>
</g>
<!-- GIT&#45;&gt;Travis -->
<g id="edge1" class="edge">
<title>GIT&#45;&gt;Travis</title>
<path fill="none" stroke="#000000" d="M54.2892,-18.5C83.2623,-18.5 129.2532,-18.5 161.6426,-18.5"/>
<polygon fill="#000000" stroke="#000000" points="162.0612,-22.0001 172.0611,-18.5 162.0611,-15.0001 162.0612,-22.0001"/>
<text text-anchor="middle" x="113.1113" y="-21.3" font-family="Times,serif" font-size="14.00" fill="#000000">Tag or commit</text>
</g>
<!-- Docker_Hub -->
<g id="node3" class="node">
<title>Docker_Hub</title>
<g id="a_node3"><a xlink:href="https://hub.docker.com/r/bvberkum/x-ci" xlink:title="Hub">
<path fill="none" stroke="#000000" d="M378.0059,-.5C378.0059,-.5 408.0059,-.5 408.0059,-.5 414.0059,-.5 420.0059,-6.5 420.0059,-12.5 420.0059,-12.5 420.0059,-24.5 420.0059,-24.5 420.0059,-30.5 414.0059,-36.5 408.0059,-36.5 408.0059,-36.5 378.0059,-36.5 378.0059,-36.5 372.0059,-36.5 366.0059,-30.5 366.0059,-24.5 366.0059,-24.5 366.0059,-12.5 366.0059,-12.5 366.0059,-6.5 372.0059,-.5 378.0059,-.5"/>
<text text-anchor="middle" x="393.0059" y="-14.3" font-family="Times,serif" font-size="14.00" fill="#000000">Hub</text>
</a>
</g>
</g>
<!-- Travis&#45;&gt;Docker_Hub -->
<g id="edge2" class="edge">
<title>Travis&#45;&gt;Docker_Hub</title>
<path fill="none" stroke="#000000" d="M226.5761,-18.5C260.3346,-18.5 317.8968,-18.5 355.6919,-18.5"/>
<polygon fill="#000000" stroke="#000000" points="355.7916,-22.0001 365.7916,-18.5 355.7916,-15.0001 355.7916,-22.0001"/>
<text text-anchor="middle" x="296.1143" y="-21.3" font-family="Times,serif" font-size="14.00" fill="#000000">Build, Tag &amp; Push</text>
</g>
</g>
</svg>
